<?xml version="1.0" standalone="no"?>
<!DOCTYPE svg PUBLIC "-//W3C//DTD SVG 20010904//EN"
 "http://www.w3.org/TR/2001/REC-SVG-20010904/DTD/svg10.dtd">
<svg version="1.0" xmlns="http://www.w3.org/2000/svg"
 width="200.000000pt" height="200.000000pt" viewBox="0 0 200.000000 200.000000"
 preserveAspectRatio="xMidYMid meet">
<metadata>
Created by potrace 1.10, written by Peter Selinger 2001-2011
</metadata>
<g transform="translate(0.000000,200.000000) scale(0.100000,-0.100000)"
fill="#2a5399" stroke="none">
<path d="M1110 1355 l0 -65 -137 0 -138 0 -56 60 c-31 34 -64 60 -75 60 -12 0
-101 -82 -233 -214 -207 -207 -214 -216 -203 -240 23 -52 47 -36 245 162 l188
187 180 -187 181 -188 287 0 c297 0 311 2 311 41 0 10 -59 85 -132 168 l-131
151 -84 0 -83 0 0 65 0 65 -60 0 -60 0 0 -65z m90 -11 c0 -66 21 -82 112 -83
82 -1 86 -4 186 -124 31 -38 74 -87 94 -110 41 -45 46 -62 24 -70 -8 -3 -134
-5 -281 -4 l-266 3 -61 64 c-155 167 -292 300 -307 300 -9 0 -97 -81 -196
-180 -99 -99 -186 -180 -192 -180 -7 0 -13 7 -13 16 0 20 365 391 393 400 13
4 35 -10 82 -55 l63 -61 135 3 c158 3 167 7 167 78 0 48 1 49 30 49 29 0 30
-2 30 -46z"/>
<path d="M580 1038 l0 -48 50 0 50 0 0 48 0 48 -50 0 -50 -1 0 -47z m54 16
c20 -8 21 -30 1 -38 -15 -5 -39 26 -28 38 8 7 8 7 27 0z"/>
<path d="M729 1085 c0 0 -2 -21 -3 -47 l-2 -48 48 0 48 0 0 48 0 47 -45 0
c-25 0 -45 0 -46 0z m69 -48 c4 -20 -25 -34 -40 -19 -15 15 -1 44 19 40 10 -2
19 -11 21 -21z"/>
<path d="M580 900 l0 -50 50 0 50 0 0 50 0 50 -50 0 -50 0 0 -50z m70 -2 c0
-11 -7 -18 -20 -18 -13 0 -20 7 -20 19 0 14 6 19 20 18 12 -1 20 -8 20 -19z"/>
<path d="M730 945 c-1 0 -2 -21 -3 -47 l-3 -48 48 0 48 0 0 48 0 48 -45 -1
c-25 0 -45 0 -45 0z m64 -34 c9 -14 -4 -41 -20 -41 -8 0 -14 10 -14 25 0 25
23 35 34 16z"/>
<path d="M424 777 c46 -37 35 -127 -15 -127 -17 0 -19 8 -19 70 0 49 -4 70
-12 70 -10 0 -12 -20 -10 -75 4 -74 4 -75 31 -75 46 0 71 25 71 74 0 44 -15
66 -55 80 -14 5 -12 0 9 -17z"/>
<path d="M600 720 c0 -47 4 -80 10 -80 6 0 10 33 10 80 0 47 -4 80 -10 80 -6
0 -10 -33 -10 -80z"/>
<path d="M1262 723 c2 -42 8 -78 13 -80 6 -2 9 27 7 77 -2 44 -8 80 -13 80 -6
0 -9 -32 -7 -77z"/>
<path d="M870 715 l0 -75 43 2 c36 1 38 2 10 5 l-33 4 0 70 c0 39 -4 69 -10
69 -6 0 -10 -32 -10 -75z"/>
<path d="M1310 780 c0 -5 5 -10 10 -10 6 0 10 5 10 10 0 6 -4 10 -10 10 -5 0
-10 -4 -10 -10z"/>
<path d="M523 743 c25 -4 27 -8 27 -49 0 -37 -3 -44 -20 -44 -25 0 -26 25 -2
39 9 6 12 11 6 11 -21 0 -45 -26 -39 -43 5 -12 17 -16 44 -15 l36 1 -5 51 c-5
50 -5 51 -40 52 -26 1 -28 1 -7 -3z"/>
<path d="M649 733 c-13 -16 -12 -17 4 -4 9 7 17 15 17 17 0 8 -8 3 -21 -13z"/>
<path d="M710 735 c-7 -8 -12 -26 -12 -40 0 -36 20 -55 56 -53 l31 1 -32 4
c-35 5 -49 28 -39 69 8 30 45 33 53 4 5 -18 23 -29 23 -14 0 38 -56 58 -80 29z"/>
<path d="M980 735 c-7 -8 -12 -26 -12 -40 0 -36 20 -55 56 -53 l31 1 -32 4
c-25 3 -34 10 -39 30 -8 31 6 58 31 58 27 0 30 -23 3 -28 -21 -4 -20 -4 4 -6
32 -1 44 14 28 34 -16 19 -54 19 -70 0z"/>
<path d="M1070 695 c0 -30 5 -55 10 -55 6 0 10 25 10 55 0 30 -4 55 -10 55 -5
0 -10 -25 -10 -55z"/>
<path d="M1127 742 c6 -4 13 -27 15 -51 2 -25 8 -46 14 -48 7 -2 9 9 7 29 -8
64 -13 78 -31 78 -11 0 -13 -3 -5 -8z"/>
<path d="M1194 724 c-21 -31 -9 -77 21 -82 18 -2 19 -2 3 8 -18 11 -24 55 -10
76 4 7 16 14 27 17 18 4 18 5 -2 6 -14 1 -29 -9 -39 -25z"/>
<path d="M1312 698 c2 -28 8 -53 13 -55 6 -2 9 18 7 52 -2 30 -8 55 -13 55 -6
0 -9 -23 -7 -52z"/>
<path d="M1360 695 c0 -30 5 -55 10 -55 6 0 10 25 10 55 0 30 -4 55 -10 55 -5
0 -10 -25 -10 -55z"/>
<path d="M1407 743 c18 -4 22 -12 25 -50 2 -26 8 -48 14 -50 7 -2 9 9 7 29 -9
72 -12 78 -41 77 -22 -1 -23 -2 -5 -6z"/>
<path d="M1486 735 c-28 -28 -13 -95 21 -95 15 0 15 1 -1 13 -12 9 -17 23 -14
47 3 30 7 35 31 38 l28 3 -3 -68 -3 -68 -32 0 c-17 0 -29 -3 -26 -7 2 -5 18
-8 34 -8 37 0 51 32 47 104 -3 49 -4 51 -34 54 -19 2 -38 -3 -48 -13z"/>
<path d="M630 699 c0 -18 37 -66 44 -58 3 3 -5 21 -19 39 -14 19 -25 27 -25
19z"/>
<path d="M728 703 c6 -2 18 -2 25 0 6 3 1 5 -13 5 -14 0 -19 -2 -12 -5z"/>
<path d="M260 540 c0 -7 243 -10 710 -10 467 0 710 3 710 10 0 7 -243 10 -710
10 -467 0 -710 -3 -710 -10z"/>
<path d="M278 483 c7 -3 16 -2 19 1 4 3 -2 6 -13 5 -11 0 -14 -3 -6 -6z"/>
<path d="M733 483 c125 -2 329 -2 455 0 125 1 22 2 -228 2 -250 0 -353 -1
-227 -2z"/>
<path d="M1613 483 c9 -2 25 -2 35 0 9 3 1 5 -18 5 -19 0 -27 -2 -17 -5z"/>
</g>
</svg>
